<svg xmlns="http://www.w3.org/2000/svg" viewBox="0 0 1600 480" role="img" aria-label="skillpod banner">
  <title>skillpod — pod-style dependency manager for AI coding agent skills</title>

  <rect width="1600" height="480" fill="#0B0D10"/>

  <defs>
    <pattern id="dots-dark" x="0" y="0" width="40" height="40" patternUnits="userSpaceOnUse">
      <circle cx="20" cy="20" r="1" fill="#FAFAF7" fill-opacity="0.06"/>
    </pattern>
  </defs>
  <rect width="1600" height="480" fill="url(#dots-dark)"/>

  <g transform="translate(110 130)">
    <g fill="none" stroke="#FAFAF7" stroke-width="13" stroke-linecap="round" stroke-linejoin="round">
      <path d="M55 25 C 30 25 30 70 30 85 C 30 100 14 92 6 92 C 14 92 30 84 30 99 C 30 114 30 159 55 159"/>
      <path d="M125 25 C 150 25 150 70 150 85 C 150 100 166 92 174 92 C 166 92 150 84 150 99 C 150 114 150 159 125 159"/>
    </g>
    <circle cx="90" cy="92" r="14" fill="#FBBF24"/>
  </g>

  <text x="320" y="252"
        font-family="ui-monospace, 'SF Mono', 'JetBrains Mono', Menlo, Consolas, monospace"
        font-size="128" font-weight="600" letter-spacing="-3" fill="#FAFAF7">skill</text>
  <circle cx="676" cy="216" r="17" fill="#FBBF24"/>
  <text x="712" y="252"
        font-family="ui-monospace, 'SF Mono', 'JetBrains Mono', Menlo, Consolas, monospace"
        font-size="128" font-weight="600" letter-spacing="-3" fill="#FAFAF7">pod</text>

  <text x="320" y="320"
        font-family="ui-monospace, 'SF Mono', 'JetBrains Mono', Menlo, Consolas, monospace"
        font-size="22" font-weight="400" fill="#9CA3AF">
    Pod-style dependency manager for AI coding agent skills.
  </text>
  <text x="320" y="356"
        font-family="ui-monospace, 'SF Mono', 'JetBrains Mono', Menlo, Consolas, monospace"
        font-size="22" font-weight="400" fill="#9CA3AF">
    One declarative manifest, multi-agent fan-out.
  </text>

  <g transform="translate(1130 130)">
    <g fill="none" stroke="#FAFAF7" stroke-width="6" stroke-linecap="round" stroke-linejoin="round" opacity="0.85">
      <path d="M30 25 C 16 25 16 55 16 65 C 16 75 6 70 2 70 C 6 70 16 65 16 75 C 16 85 16 115 30 115"/>
      <path d="M70 25 C 84 25 84 55 84 65 C 84 75 94 70 98 70 C 94 70 84 65 84 75 C 84 85 84 115 70 115"/>
    </g>
    <circle cx="50" cy="70" r="9" fill="#FBBF24"/>
  </g>

  <g stroke="#FAFAF7" stroke-width="2" stroke-opacity="0.25" stroke-linecap="round" fill="none">
    <path d="M1240 200 L 1380 130"/>
    <path d="M1240 200 L 1400 175"/>
    <path d="M1240 200 L 1410 215"/>
    <path d="M1240 200 L 1400 255"/>
    <path d="M1240 200 L 1380 295"/>
    <path d="M1240 200 L 1340 335"/>
  </g>

  <g fill="#FAFAF7" opacity="0.85">
    <circle cx="1390" cy="125" r="9"/>
    <circle cx="1410" cy="172" r="9"/>
    <circle cx="1420" cy="215" r="9"/>
    <circle cx="1410" cy="258" r="9"/>
    <circle cx="1390" cy="298" r="9"/>
    <circle cx="1350" cy="338" r="9"/>
  </g>

  <g font-family="ui-monospace, 'SF Mono', Menlo, monospace" font-size="14" fill="#9CA3AF">
    <text x="1410" y="129">claude</text>
    <text x="1430" y="176">codex</text>
    <text x="1440" y="219">gemini</text>
    <text x="1430" y="262">cursor</text>
    <text x="1410" y="302">opencode</text>
    <text x="1370" y="342">antigravity</text>
  </g>
</svg>
